<!DOCTYPE svg PUBLIC "-//W3C//DTD SVG 1.1//EN" "http://www.w3.org/Graphics/SVG/1.1/DTD/svg11.dtd">

<!-- Uploaded to: SVG Repo, www.svgrepo.com, Transformed by: SVG Repo Mixer Tools -->
<svg fill="#000000" width="50px" height="50px" viewBox="-3.6 -3.6 31.20 31.20" id="garage-car" data-name="Flat Line" xmlns="http://www.w3.org/2000/svg" class="icon flat-line" stroke="#000000">

<g id="SVGRepo_bgCarrier" stroke-width="0">

<rect x="-3.6" y="-3.6" width="31.20" height="31.20" rx="15.6" fill="#00319c" strokewidth="0"/>

</g>

<g id="SVGRepo_tracerCarrier" stroke-linecap="round" stroke-linejoin="round"/>

<g id="SVGRepo_iconCarrier">

<path id="secondary" d="M16,15l-.81-3.24a1,1,0,0,0-1-.76H9.78a1,1,0,0,0-1,.76L8,15Z" style="fill: #00319c; stroke-width: 2;"/>

<path id="primary" d="M16,15l-.81-3.24a1,1,0,0,0-1-.76H9.78a1,1,0,0,0-1,.76L8,15Zm1,1a1,1,0,0,0-1-1H8a1,1,0,0,0-1,1v3H17Zm-7,4V19H8v1a1,1,0,0,0,1,1H9A1,1,0,0,0,10,20Zm5,1h0a1,1,0,0,0,1-1V19H14v1A1,1,0,0,0,15,21Z" style="fill: none; stroke: #ffffff; stroke-linecap: round; stroke-linejoin: round; stroke-width: 2;"/>

<path id="primary-2" data-name="primary" d="M3,21V7.65a1,1,0,0,1,.59-.91L12,3l8.41,3.74a1,1,0,0,1,.59.91V21" style="fill: none; stroke: #ffffff; stroke-linecap: round; stroke-linejoin: round; stroke-width: 2;"/>

</g>

</svg>