<!DOCTYPE svg PUBLIC "-//W3C//DTD SVG 1.1//EN" "http://www.w3.org/Graphics/SVG/1.1/DTD/svg11.dtd">
<!-- Uploaded to: SVG Repo, www.svgrepo.com, Transformed by: SVG Repo Mixer Tools -->
<svg width="64px" height="64px" viewBox="-2.4 -2.4 28.80 28.80" xmlns="http://www.w3.org/2000/svg" fill="#ffb81f" stroke="#ffb81f">
<g id="SVGRepo_bgCarrier" stroke-width="0">
<rect x="-2.4" y="-2.4" width="28.80" height="28.80" rx="0" fill="rgb(73, 73, 73)" strokewidth="0"/>
</g>
<g id="SVGRepo_tracerCarrier" stroke-linecap="round" stroke-linejoin="round"/>
<g id="SVGRepo_iconCarrier"> <g> <path fill="none" d="M0 0h24v24H0z"/> <path d="M19 21H5a1 1 0 0 1-1-1v-9H1l10.327-9.388a1 1 0 0 1 1.346 0L23 11h-3v9a1 1 0 0 1-1 1zM6 19h12V9.157l-6-5.454-6 5.454V19zm2.591-5.191a3.508 3.508 0 0 1 0-1.622l-.991-.572 1-1.732.991.573a3.495 3.495 0 0 1 1.404-.812V8.5h2v1.144c.532.159 1.01.44 1.404.812l.991-.573 1 1.731-.991.573a3.508 3.508 0 0 1 0 1.622l.991.572-1 1.731-.991-.572a3.495 3.495 0 0 1-1.404.811v1.145h-2V16.35a3.495 3.495 0 0 1-1.404-.811l-.991.572-1-1.73.991-.573zm3.404.688a1.5 1.5 0 1 0 0-2.998 1.5 1.5 0 0 0 0 2.998z"/> </g> </g>
</svg>