<!DOCTYPE svg PUBLIC "-//W3C//DTD SVG 1.1//EN" "http://www.w3.org/Graphics/SVG/1.1/DTD/svg11.dtd">

<!-- Uploaded to: SVG Repo, www.svgrepo.com, Transformed by: SVG Repo Mixer Tools -->
<svg version="1.1" id="Uploaded to svgrepo.com" xmlns="http://www.w3.org/2000/svg" xmlns:xlink="http://www.w3.org/1999/xlink" width="64px" height="64px" viewBox="-3.2 -3.2 38.40 38.40" xml:space="preserve" fill="#000000">

<g id="SVGRepo_bgCarrier" stroke-width="0">

<rect x="-3.2" y="-3.2" width="38.40" height="38.40" rx="0" fill="rgb(73, 73, 73)" strokewidth="0"/>

</g>

<g id="SVGRepo_tracerCarrier" stroke-linecap="round" stroke-linejoin="round"/>

<g id="SVGRepo_iconCarrier"> <style type="text/css"> .stone_een{fill:#ffba24;} .st0{fill:#ffba24;} </style> <path class="stone_een" d="M16.5,24H20v6h-3.5V24z M18,20h2v-2h-2V20z M12,20h2v-2h-2V20z M12,30h3.5v-6H12V30z M6,20h2v-2H6V20z M6,26h2v-2H6V26z M24,26h2v-2h-2V26z M24,20h2v-2h-2V20z M30,16v11c0,1.657-1.343,3-3,3h-6v-6c0-0.552-0.448-1-1-1h-8 c-0.552,0-1,0.448-1,1v6H5c-1.657,0-3-1.343-3-3V16c0-1.657,1.343-3,3-3h9.083l0.84-10.083C14.967,2.399,15.4,2,15.92,2h2.16 c0.52,0,0.953,0.399,0.997,0.917L19.917,13h1.167l0.84-10.083C21.967,2.399,22.4,2,22.92,2h2.16c0.52,0,0.953,0.399,0.997,0.917 L26.917,13H27C28.657,13,30,14.343,30,16z M9,24c0-0.552-0.448-1-1-1H6c-0.552,0-1,0.448-1,1v2c0,0.552,0.448,1,1,1h2 c0.552,0,1-0.448,1-1V24z M9,18c0-0.552-0.448-1-1-1H6c-0.552,0-1,0.448-1,1v2c0,0.552,0.448,1,1,1h2c0.552,0,1-0.448,1-1V18z M15,18c0-0.552-0.448-1-1-1h-2c-0.552,0-1,0.448-1,1v2c0,0.552,0.448,1,1,1h2c0.552,0,1-0.448,1-1V18z M21,18c0-0.552-0.448-1-1-1 h-2c-0.552,0-1,0.448-1,1v2c0,0.552,0.448,1,1,1h2c0.552,0,1-0.448,1-1V18z M27,24c0-0.552-0.448-1-1-1h-2c-0.552,0-1,0.448-1,1v2 c0,0.552,0.448,1,1,1h2c0.552,0,1-0.448,1-1V24z M27,18c0-0.552-0.448-1-1-1h-2c-0.552,0-1,0.448-1,1v2c0,0.552,0.448,1,1,1h2 c0.552,0,1-0.448,1-1V18z"/> </g>

</svg>